{"title":"The Others 2001 BRRip H264 AAC-Rx(Phoenix-RG)","uid":5724711,"size":1664148260,"categoryP":"other","categoryS":"other","magnet":"?xt=urn:btih:25de5c011b38f713ed377bf7618503c6e06eae48&amp;dn=The+Others+2001+BRRip+H264+AAC-Rx%28Phoenix-RG%29&amp;tr=udp%3A%2F%2Ftracker.openbittorrent.com%3A80&amp;tr=udp%3A%2F%2Fopen.demonii.com%3A1337&amp;tr=udp%3A%2F%2Ftracker.coppersurfer.tk%3A6969&amp;tr=udp%3A%2F%2Fexodus.desync.com%3A6969","seeders":0,"leechers":1,"uploader":"spit3825","files":7,"time":1280420008,"description":"The Others 2001 BRRip H264 AAC-Rx(Phoenix-RG).mp4\n      Format : MPEG-4\n      Format profile : Base Media\n      Codec ID : isom\n      File size : 1.55 GiB\n      Duration : 1h 44mn\n      Overall bit rate : 2 126 Kbps\n      \n   Video #1\n      Format : AVC\n      Format/Info : Advanced Video Codec\n      Format profile : &lt;a class=&quot;__cf_email__&quot; href=&quot;/cdn-cgi/l/email-protection&quot; data-cfemail=&quot;92dafbf5fad2dea6bca3&quot;&gt;[email&amp;#160;protected]&lt;/a&gt;&lt;script cf-hash='f9e31' type=&quot;text/javascript&quot;&gt;\n/* &lt;![CDATA[ */!function(){try{var t=&quot;currentScript&quot;in document?document.currentScript:function(){for(var t=document.getElementsByTagName(&quot;script&quot;),e=t.length;e--;)if(t[e].getAttribute(&quot;cf-hash&quot;))return t[e]}();if(t&amp;&amp;t.previousSibling){var e,r,n,i,c=t.previousSibling,a=c.getAttribute(&quot;data-cfemail&quot;);if(a){for(e=&quot;&quot;,r=parseInt(a.substr(0,2),16),n=2;a.length-n;n+=2)i=parseInt(a.substr(n,2),16)^r,e+=String.fromCharCode(i);e=document.createTextNode(e),c.parentNode.replaceChild(e,c)}}}catch(u){}}();/* ]]&gt; */&lt;/script&gt;\n      Format settings, CABAC : Yes\n      Format settings, ReFrames : 3 frames\n      Codec ID : avc1\n      Codec ID/Info : Advanced Video Coding\n      Duration : 1h 44mn\n      Bit rate mode : Variable\n      Bit rate : 1 800 Kbps\n      Maximum bit rate : 5 402 Kbps\n      Width : 1 280 pixels\n      Height : 720 pixels\n      Display aspect ratio : 16/9\n      Frame rate mode : Constant\n      Frame rate : 24.000 fps\n      Resolution : 24 bits\n      Colorimetry : 4:2:0\n      Scan type : Progressive\n      Bits/(Pixel*Frame) : 0.081\n      Stream size : 1.31 GiB (85%)\n      Writing library : x264 core 98 r1649 c54c47d\n      \n   Audio #2\n      Format : AAC\n      Format/Info : Advanced Audio Codec\n      Format version : Version 4\n      Format profile : LC\n      Format settings, SBR : No\n      Codec ID : 40\n      Duration : 1h 44mn\n      Bit rate mode : Variable\n      Bit rate : 322 Kbps\n      Maximum bit rate : 392 Kbps\n      Channel(s) : 6 channels\n      Channel positions : Front: L C R, Rear: L R, LFE\n      Sampling rate : 48.0 KHz\n      Resolution : 16 bits\n      Stream size : 240 MiB (15%)","torrent":{"xt":"urn:btih:25de5c011b38f713ed377bf7618503c6e06eae48","amp;dn":"The+Others+2001+BRRip+H264+AAC-Rx%28Phoenix-RG%29","amp;tr":["udp%3A%2F%2Ftracker.openbittorrent.com%3A80","udp%3A%2F%2Fopen.demonii.com%3A1337","udp%3A%2F%2Ftracker.coppersurfer.tk%3A6969","udp%3A%2F%2Fexodus.desync.com%3A6969"],"infoHash":"25de5c011b38f713ed377bf7618503c6e06eae48","infoHashBuffer":{"type":"Buffer","data":[37,222,92,1,27,56,247,19,237,55,123,247,97,133,3,198,224,110,174,72]},"announce":[],"urlList":[]}}